HIERARCHY
ROOT Hips
{
	OFFSET	0.000000	0.000000	0.000000
	CHANNELS	6	Xposition	Yposition	Zposition	Zrotation	Xrotation	Yrotation
	JOINT LeftHip
	{
		OFFSET	15.500000	-8.200000	0.000000
		CHANNELS	3	Zrotation	Xrotation	Yrotation
		JOINT LeftKnee
		{
			OFFSET	0.000000	-41.000000	0.000000
			CHANNELS	3	Zrotation	Xrotation	Yrotation
			JOINT LeftAnkle
			{
				OFFSET	0.000000	-41.500000	0.000000
				CHANNELS	3	Zrotation	Xrotation	Yrotation
				End Site
				{
					OFFSET	0.000000	0.000000	22.875000
				}
			}
		}
	}
	JOINT RightHip
	{
		OFFSET	-15.500000	-8.200000	0.000000
		CHANNELS	3	Zrotation	Xrotation	Yrotation
		JOINT RightKnee
		{
			OFFSET	0.000000	-41.000000	0.000000
			CHANNELS	3	Zrotation	Xrotation	Yrotation
			JOINT RightAnkle
			{
				OFFSET	0.000000	-41.500000	0.000000
				CHANNELS	3	Zrotation	Xrotation	Yrotation
				End Site
				{
					OFFSET	0.000000	0.000000	22.875000
				}
			}
		}
	}
	JOINT Chest
	{
		OFFSET	0.000000	16.666667	0.000000
		CHANNELS	3	Zrotation	Xrotation	Yrotation
		JOINT LeftCollar
		{
			OFFSET	4.625000	33.333333	1.541667
			CHANNELS	3	Zrotation	Xrotation	Yrotation
			JOINT LeftShoulder
			{
				OFFSET	13.875000	0.000000	0.000000
				CHANNELS	3	Zrotation	Xrotation	Yrotation
				JOINT LeftElbow
				{
					OFFSET	0.000000	-28.000000	0.000000
					CHANNELS	3	Zrotation	Xrotation	Yrotation
					JOINT LeftWrist
					{
						OFFSET	0.000000	-25.000000	0.000000
						CHANNELS	3	Zrotation	Xrotation	Yrotation
						End Site
						{
							OFFSET	0.000000	-7.500000	0.000000
						}
					}
				}
			}
		}
		JOINT RightCollar
		{
			OFFSET	-4.625000	33.333333	1.541667
			CHANNELS	3	Zrotation	Xrotation	Yrotation
			JOINT RightShoulder
			{
				OFFSET	-13.875000	0.000000	0.000000
				CHANNELS	3	Zrotation	Xrotation	Yrotation
				JOINT RightElbow
				{
					OFFSET	0.000000	-28.000000	0.000000
					CHANNELS	3	Zrotation	Xrotation	Yrotation
					JOINT RightWrist
					{
						OFFSET	0.000000	-25.000000	0.000000
						CHANNELS	3	Zrotation	Xrotation	Yrotation
						End Site
						{
							OFFSET	0.000000	-7.500000	0.000000
						}
					}
				}
			}
		}
		JOINT Neck
		{
			OFFSET	0.000000	33.333333	0.000000
			CHANNELS	3	Zrotation	Xrotation	Yrotation
			JOINT Head
			{
				OFFSET	0.000000	12.000000	0.000000
				CHANNELS	3	Zrotation	Xrotation	Yrotation
				End Site
				{
					OFFSET	0.000000	15.000000	0.000000
				}
			}
		}
	}
}
MOTION
Frames:	26
Frame Time:	0.012000
-35.15	64.10	-122.10	-0.31	-5.68	-2.83	-165.89	-82.85	-151.86	-180.00	77.64	180.00	-11.45	22.39	5.70	-3.01	-79.04	-25.02	0.00	80.28	0.00	4.55	20.62	0.71	5.49	1.64	12.68	0.00	0.00	0.00	21.58	-16.00	38.62	-20.31	-16.32	-30.40	1.78	-3.31	0.00	0.00	0.00	0.00	12.34	-22.19	-8.22	19.94	-23.59	17.89	-4.74	-5.40	0.00	0.00	0.00	0.00	-6.39	-11.54	-3.14
-35.15	64.11	-122.09	-0.31	-5.68	-2.83	-165.96	-82.84	-151.91	-180.00	77.64	180.00	-11.43	22.40	5.70	-3.01	-79.05	-25.03	0.00	80.27	0.00	4.56	20.62	0.73	5.51	1.63	12.70	0.00	0.00	0.00	21.60	-15.99	38.62	-20.32	-16.35	-30.41	1.78	-3.31	0.00	0.00	0.00	0.00	12.36	-22.18	-8.23	19.95	-23.61	17.91	-4.75	-5.40	0.00	0.00	0.00	0.00	-6.40	-11.52	-3.16
-35.14	64.11	-122.10	-0.31	-5.68	-2.83	-165.94	-82.83	-151.88	-180.00	77.58	180.00	-11.44	22.38	5.70	-3.02	-79.05	-25.04	0.00	80.26	0.00	4.61	20.69	0.69	5.53	1.61	12.73	0.00	0.00	0.00	21.62	-15.98	38.63	-20.34	-16.37	-30.41	1.78	-3.31	0.00	0.00	0.00	0.00	12.39	-22.17	-8.23	19.94	-23.61	17.86	-4.75	-5.40	0.00	0.00	0.00	0.00	-6.42	-11.50	-3.19
-35.15	64.11	-122.11	-0.33	-5.65	-2.84	-165.96	-82.82	-151.90	-180.00	77.58	180.00	-11.43	22.40	5.67	-3.02	-79.06	-25.06	0.00	80.25	0.00	4.60	20.68	0.71	5.53	1.60	12.75	0.00	0.00	0.00	21.64	-15.97	38.65	-20.34	-16.40	-30.42	1.78	-3.31	0.00	0.00	0.00	0.00	12.36	-22.23	-8.21	19.94	-23.58	17.86	-4.75	-5.40	0.00	0.00	0.00	0.00	-6.40	-11.46	-3.19
-35.13	64.11	-122.10	-0.33	-5.65	-2.84	-165.98	-82.81	-151.92	180.00	77.58	-180.00	-11.45	22.40	5.68	-3.04	-79.07	-25.08	0.00	80.25	0.00	4.59	20.66	0.72	5.53	1.58	12.78	0.00	0.00	0.00	21.66	-15.96	38.68	-20.34	-16.41	-30.44	1.78	-3.31	0.00	0.00	0.00	0.00	12.36	-22.23	-8.22	19.96	-23.58	17.90	-4.76	-5.39	0.00	0.00	0.00	0.00	-6.41	-11.44	-3.21
-35.13	64.11	-122.12	-0.33	-5.65	-2.84	-166.00	-82.80	-151.93	-180.00	77.58	180.00	-11.43	22.40	5.65	-3.04	-79.07	-25.10	0.00	80.24	0.00	4.59	20.64	0.73	5.54	1.56	12.80	0.00	0.00	0.00	21.67	-15.96	38.68	-20.32	-16.43	-30.43	1.77	-3.31	0.00	0.00	0.00	0.00	12.37	-22.24	-8.22	19.97	-23.56	17.90	-4.77	-5.40	0.00	0.00	0.00	0.00	-6.41	-11.42	-3.24
-35.14	64.11	-122.14	-0.34	-5.63	-2.84	-166.02	-82.79	-151.95	-180.00	77.60	180.00	-11.43	22.36	5.64	-3.05	-79.08	-25.11	0.00	80.22	0.00	4.58	20.66	0.72	5.54	1.55	12.83	0.00	0.00	0.00	21.64	-15.94	38.69	-20.31	-16.46	-30.43	1.77	-3.30	0.00	0.00	0.00	0.00	12.36	-22.21	-8.24	20.00	-23.56	17.92	-4.78	-5.39	0.00	0.00	0.00	0.00	-6.44	-11.37	-3.27
-35.13	64.11	-122.13	-0.34	-5.63	-2.84	-166.06	-82.78	-152.00	180.00	77.60	-180.00	-11.44	22.33	5.62	-3.07	-79.09	-25.14	0.00	80.22	0.00	4.57	20.66	0.71	5.54	1.54	12.85	0.00	0.00	0.00	21.64	-15.93	38.71	-20.31	-16.48	-30.43	1.77	-3.31	0.00	0.00	0.00	0.00	12.35	-22.22	-8.26	20.01	-23.54	17.92	-4.78	-5.39	0.00	0.00	0.00	0.00	-6.44	-11.35	-3.29
-35.15	64.11	-122.15	-0.34	-5.63	-2.84	-166.12	-82.77	-152.04	180.00	77.60	-180.00	-11.44	22.34	5.64	-3.09	-79.10	-25.18	0.00	80.21	0.00	4.50	20.62	0.76	5.54	1.52	12.87	0.00	0.00	0.00	21.62	-15.90	38.64	-20.31	-16.51	-30.45	1.78	-3.31	0.00	0.00	0.00	0.00	12.35	-22.21	-8.26	20.03	-23.55	17.93	-4.78	-5.39	0.00	0.00	0.00	0.00	-6.44	-11.34	-3.31
-35.15	64.11	-122.17	-0.33	-5.60	-2.85	-166.15	-82.76	-152.07	-180.00	77.60	180.00	-11.45	22.32	5.63	-3.13	-79.10	-25.23	0.00	80.21	0.00	4.50	20.60	0.78	5.54	1.51	12.89	0.00	0.00	0.00	21.59	-15.89	38.62	-20.29	-16.53	-30.44	1.76	-3.30	0.00	0.00	0.00	0.00	12.34	-22.21	-8.27	20.05	-23.55	17.95	-4.78	-5.39	0.00	0.00	0.00	0.00	-6.46	-11.32	-3.33
-35.16	64.11	-122.14	-0.33	-5.60	-2.85	-166.21	-82.75	-152.12	180.00	77.60	-180.00	-11.44	22.31	5.62	-3.12	-79.11	-25.22	0.00	80.21	0.00	4.49	20.61	0.79	5.54	1.49	12.91	0.00	0.00	0.00	21.61	-15.88	38.63	-20.30	-16.55	-30.45	1.76	-3.30	0.00	0.00	0.00	0.00	12.37	-22.19	-8.29	20.06	-23.57	17.95	-4.79	-5.40	0.00	0.00	0.00	0.00	-6.47	-11.29	-3.35
-35.16	64.11	-122.15	-0.33	-5.60	-2.85	-166.47	-82.75	-152.34	180.00	77.57	-180.00	-11.41	22.32	5.60	-3.14	-79.12	-25.26	0.00	80.22	0.00	4.49	20.56	0.79	5.54	1.47	12.93	0.00	0.00	0.00	21.61	-15.88	38.63	-20.28	-16.53	-30.43	1.76	-3.30	0.00	0.00	0.00	0.00	12.36	-22.19	-8.29	20.07	-23.56	17.97	-4.79	-5.40	0.00	0.00	0.00	0.00	-6.47	-11.28	-3.37
-35.17	64.11	-122.16	-0.33	-5.58	-2.87	-166.55	-82.74	-152.40	-180.00	77.55	180.00	-11.38	22.37	5.60	-3.15	-79.13	-25.27	0.00	80.22	0.00	4.47	20.59	0.77	5.53	1.46	12.95	0.00	0.00	0.00	21.59	-15.86	38.64	-20.25	-16.56	-30.43	1.76	-3.30	0.00	0.00	0.00	0.00	12.33	-22.18	-8.30	20.11	-23.55	18.00	-4.80	-5.40	0.00	0.00	0.00	0.00	-6.48	-11.21	-3.38
-35.17	64.11	-122.14	-0.33	-5.58	-2.87	-166.56	-82.74	-152.41	-180.00	77.54	180.00	-11.38	22.42	5.62	-3.17	-79.14	-25.30	0.00	80.21	0.00	4.48	20.56	0.76	5.53	1.46	12.97	0.00	0.00	0.00	21.60	-15.84	38.64	-20.25	-16.56	-30.41	1.75	-3.30	0.00	0.00	0.00	0.00	12.32	-22.18	-8.34	20.12	-23.55	18.03	-4.78	-5.39	0.00	0.00	0.00	0.00	-6.49	-11.20	-3.40
-35.18	64.10	-122.16	-0.33	-5.58	-2.87	-166.60	-82.73	-152.45	-180.00	77.54	180.00	-11.38	22.42	5.61	-3.13	-79.16	-25.23	0.00	80.19	0.00	4.48	20.59	0.77	5.52	1.45	12.98	0.00	0.00	0.00	21.52	-15.84	38.66	-20.21	-16.56	-30.39	1.75	-3.30	0.00	0.00	0.00	0.00	12.29	-22.18	-8.35	20.16	-23.55	18.05	-4.79	-5.39	0.00	0.00	0.00	0.00	-6.47	-11.19	-3.41
-35.15	64.10	-122.20	-0.33	-5.55	-2.86	-166.64	-82.72	-152.49	180.00	77.54	-180.00	-11.37	22.42	5.62	-3.15	-79.17	-25.25	0.00	80.19	0.00	4.48	20.57	0.77	5.51	1.43	12.99	0.00	0.00	0.00	21.51	-15.84	38.66	-20.19	-16.56	-30.38	1.74	-3.30	0.00	0.00	0.00	0.00	12.30	-22.13	-8.39	20.20	-23.57	18.09	-4.80	-5.39	0.00	0.00	0.00	0.00	-6.48	-11.18	-3.46
-35.16	64.10	-122.17	-0.33	-5.55	-2.86	-166.66	-82.71	-152.52	180.00	77.54	-180.00	-11.38	22.41	5.60	-3.16	-79.17	-25.28	0.00	80.17	0.00	4.49	20.60	0.76	5.49	1.42	13.00	0.00	0.00	0.00	21.49	-15.84	38.66	-20.18	-16.57	-30.39	1.73	-3.31	0.00	0.00	0.00	0.00	12.26	-22.12	-8.39	20.23	-23.58	18.12	-4.81	-5.39	0.00	0.00	0.00	0.00	-6.46	-11.17	-3.46
-35.16	64.10	-122.19	-0.33	-5.55	-2.86	-166.68	-82.70	-152.54	-180.00	77.54	-180.00	-11.38	22.41	5.61	-3.16	-79.18	-25.28	0.00	80.16	0.00	4.49	20.59	0.75	5.50	1.40	13.01	0.00	0.00	0.00	21.51	-15.83	38.70	-20.20	-16.60	-30.41	1.73	-3.31	0.00	0.00	0.00	0.00	12.28	-22.13	-8.40	20.22	-23.58	18.13	-4.81	-5.39	0.00	0.00	0.00	0.00	-6.47	-11.15	-3.48
-35.17	64.10	-122.21	-0.35	-5.53	-2.86	-166.72	-82.69	-152.57	-180.00	77.53	180.00	-11.38	22.41	5.60	-3.17	-79.19	-25.29	0.00	80.14	0.00	4.49	20.61	0.75	5.49	1.39	13.03	0.00	0.00	0.00	21.48	-15.83	38.70	-20.18	-16.60	-30.42	1.73	-3.31	0.00	0.00	0.00	0.00	12.27	-22.14	-8.40	20.24	-23.56	18.14	-4.81	-5.38	0.00	0.00	0.00	0.00	-6.44	-11.17	-3.48
-35.14	64.10	-122.21	-0.35	-5.53	-2.86	-166.76	-82.68	-152.61	-180.00	77.53	180.00	-11.37	22.40	5.61	-3.19	-79.19	-25.32	0.00	80.15	0.00	4.48	20.60	0.77	5.47	1.35	13.04	0.00	0.00	0.00	21.47	-15.84	38.72	-20.17	-16.61	-30.42	1.73	-3.31	0.00	0.00	0.00	0.00	12.26	-22.16	-8.40	20.26	-23.58	18.13	-4.95	-5.47	0.00	0.00	0.00	0.00	-6.41	-11.14	-3.49
-35.14	64.10	-122.21	-0.35	-5.53	-2.86	-166.80	-82.66	-152.61	-180.00	77.51	180.00	-11.39	22.38	5.60	-3.13	-79.21	-25.23	0.00	80.12	0.00	4.52	20.60	0.76	5.48	1.34	13.04	0.00	0.00	0.00	21.51	-15.85	38.76	-20.18	-16.60	-30.43	1.73	-3.31	0.00	0.00	0.00	0.00	12.27	-22.17	-8.39	20.25	-23.57	18.13	-4.95	-5.48	0.00	0.00	0.00	0.00	-6.42	-11.13	-3.50
-35.12	64.09	-122.25	-0.34	-5.49	-2.86	-166.81	-82.65	-152.62	-180.00	77.53	-180.00	-11.38	22.38	5.61	-3.12	-79.22	-25.20	0.00	80.11	0.00	4.54	20.61	0.74	5.48	1.34	13.05	0.00	0.00	0.00	21.54	-15.85	38.79	-20.19	-16.60	-30.43	1.72	-3.31	0.00	0.00	0.00	0.00	12.28	-22.18	-8.40	20.24	-23.54	18.06	-4.95	-5.48	0.00	0.00	0.00	0.00	-6.45	-11.16	-3.50
-35.13	64.10	-122.23	-0.34	-5.49	-2.86	-166.82	-82.64	-152.62	-180.00	77.53	180.00	-11.38	22.38	5.60	-3.14	-79.23	-25.23	0.00	80.11	0.00	4.51	20.62	0.75	5.49	1.33	13.05	0.00	0.00	0.00	21.57	-15.85	38.79	-20.22	-16.60	-30.43	1.72	-3.31	0.00	0.00	0.00	0.00	12.28	-22.18	-8.37	20.23	-23.53	18.01	-4.81	-5.40	0.00	0.00	0.00	0.00	-6.45	-11.15	-3.51
-35.13	64.10	-122.22	-0.34	-5.49	-2.86	-166.83	-82.63	-152.63	180.00	77.52	-180.00	-11.38	22.38	5.61	-23.04	-75.80	-46.18	26.21	78.96	-15.73	-1.95	21.26	6.46	5.48	1.31	13.06	0.00	0.00	0.00	21.55	-15.85	38.80	-20.23	-16.59	-30.48	1.73	-3.33	0.00	0.00	0.00	0.00	12.26	-22.19	-8.38	20.24	-23.55	18.00	-4.81	-5.41	0.00	0.00	0.00	0.00	-6.44	-11.13	-3.51
-35.14	64.10	-122.22	-0.35	-5.49	-2.89	-166.85	-82.62	-152.66	-180.00	77.53	180.00	-11.39	22.37	5.61	-3.16	-79.24	-25.27	0.00	80.13	0.00	4.51	20.64	0.72	5.48	1.31	13.06	0.00	0.00	0.00	21.56	-15.86	38.80	-20.24	-16.59	-30.49	1.73	-3.33	0.00	0.00	0.00	0.00	12.26	-22.20	-8.38	20.25	-23.55	18.00	-4.81	-5.40	0.00	0.00	0.00	0.00	-6.40	-11.09	-3.49
-35.12	64.10	-122.21	-0.35	-5.49	-2.89	-166.89	-82.61	-152.69	-180.00	77.53	180.00	-11.38	22.37	5.61	-3.18	-79.24	-25.29	0.00	80.14	0.00	4.52	20.66	0.72	5.50	1.33	13.07	0.00	0.00	0.00	21.59	-15.84	38.79	-20.27	-16.57	-30.50	1.73	-3.33	0.00	0.00	0.00	0.00	12.31	-22.17	-8.40	20.25	-23.56	18.02	-4.80	-5.40	0.00	0.00	0.00	0.00	-6.43	-11.10	-3.50
